inDegrees=no
num_controls=7
num_derivatives=13
num_iterations=107
num_multipliers=7
num_parameters=0
num_slacks=7
num_states=26
objective=0.247829
objective_accelerations=0.000000
objective_balance=0.001794
objective_effort=0.049438
objective_height=0.188097
objective_ligament=0.008501
solver_duration=1476.072079
status=Solve_Succeeded
success=true
DataType=double
version=3
OpenSimVersion=4.5
endheader
time	/jointset/ground_pelvis/pelvis_tilt/value	/jointset/ground_pelvis/pelvis_tx/value	/jointset/ground_pelvis/pelvis_ty/value	/jointset/hip_l/hip_flexion_l/value	/jointset/hip_l/hip_adduction_l/value	/jointset/hip_l/hip_rotation_l/value	/jointset/back/lumbar_extension/value	/jointset/patellofemoral_l/patellar_flexion_l/value	/jointset/knee_l/knee_flexion_l/value	/jointset/knee_l/knee_adduction_l/value	/jointset/knee_l/knee_rotation_l/value	/jointset/ankle_l/ankle_angle_l/value	/jointset/subtalar_l/subtalar_angle_l/value	/jointset/ground_pelvis/pelvis_tilt/speed	/jointset/ground_pelvis/pelvis_tx/speed	/jointset/ground_pelvis/pelvis_ty/speed	/jointset/hip_l/hip_flexion_l/speed	/jointset/hip_l/hip_adduction_l/speed	/jointset/hip_l/hip_rotation_l/speed	/jointset/back/lumbar_extension/speed	/jointset/patellofemoral_l/patellar_flexion_l/speed	/jointset/knee_l/knee_flexion_l/speed	/jointset/knee_l/knee_adduction_l/speed	/jointset/knee_l/knee_rotation_l/speed	/jointset/ankle_l/ankle_angle_l/speed	/jointset/subtalar_l/subtalar_angle_l/speed	/forceset/tau_hip_flexion_l	/forceset/tau_hip_adduction_l	/forceset/tau_hip_rotation_l	/forceset/tau_knee_flexion_l	/forceset/tau_ankle_angle_l	/forceset/tau_subtalar_angle_l	/forceset/tau_lumbar_extension	lambda_cid13_p0	lambda_cid13_p1	lambda_cid13_p2	lambda_cid13_p3	lambda_cid13_p4	lambda_cid13_p5	lambda_cid14_p0	/jointset/ground_pelvis/pelvis_tilt/accel	/jointset/ground_pelvis/pelvis_tx/accel	/jointset/ground_pelvis/pelvis_ty/accel	/jointset/hip_l/hip_flexion_l/accel	/jointset/hip_l/hip_adduction_l/accel	/jointset/hip_l/hip_rotation_l/accel	/jointset/back/lumbar_extension/accel	/jointset/patellofemoral_l/patellar_flexion_l/accel	/jointset/knee_l/knee_flexion_l/accel	/jointset/knee_l/knee_adduction_l/accel	/jointset/knee_l/knee_rotation_l/accel	/jointset/ankle_l/ankle_angle_l/accel	/jointset/subtalar_l/subtalar_angle_l/accel	gamma_cid13_p0	gamma_cid13_p1	gamma_cid13_p2	gamma_cid13_p3	gamma_cid13_p4	gamma_cid13_p5	gamma_cid14_p0
1	-0.2042975162456266	-0.01628407660332648	0.3560774126774843	2.181569524854471	-0.2412996729441259	0.4880506755642564	-0.4362527060113012	2.181568122595774	2.181568122595764	0.08825037581650189	-0.1736190115335071	0.4360860999731498	0.4208768125943714	0.002071376232137997	-0.0007251160271461953	0.0002938649508110007	-0.005508595477483389	0.008549747141295343	0.08475072412433858	-0.0008307841428823584	-0.0002514399858973772	-0.0002514399858977022	-0.07069008227156617	-0.02214041059825719	0.0006877911650499971	0.0137527183694884	-0.1008751681451184	-0.0322875810036686	-0.00965974304096765	-0.3930810362985833	0.07832622051730886	0.01210715088568884	0.1174167815593966	-6.724748565868571	4.589421156849627	-10.91603129013091	1.06691332276105	-461.0134412234925	-156.7914026675062	-0.0153118177414268	0.2233304507815985	0.009312999213917325	-8.675113773329079e-05	-0.03457271495208038	-0.3385159904388114	-3.52901490031898	-0.102424503112108	0.0413766727365764	0.04137667273657591	2.965865054789526	0.9371587084557901	-0.04688952410501022	-0.5587845908266575	6.416442018475607e-07	-6.214039327945181e-07	-1.806689983563332e-07	3.570150669692786e-07	-5.235925269488017e-07	-4.029738284482599e-06	8.318009604545652e-07
1.01	-0.2042667558814107	-0.01629074739471347	0.3560801281915097	2.181512583353406	-0.2412278913213897	0.4886817747102076	-0.4362641728410122	2.181569130340237	2.181569130340233	0.08773024062655176	-0.1737667164860551	0.4360918347494618	0.420993897811712	0.003973600854598078	-0.0005976129917654077	0.0002284542185766674	-0.005847520754815847	0.006024664867693858	0.03906940881241568	-0.001272725424119043	0.0005559433667847556	0.0005559433667843875	-0.03100166378593584	-0.005732099273209327	0.0005404502455798334	0.01016704563126992	-0.1010302222233848	-0.03274733189658197	-0.009789679042385415	-0.3927361172477546	0.0780337331082462	0.01241083928503375	0.1176277277180742	-6.714536722546037	4.371199352227353	-10.78467324847113	0.8149116751083514	-460.828407408959	-157.3280682817923	-0.01530916006648976	0.1575221334587348	0.01614616913839595	-0.01283158524841688	-0.02879985884973364	-0.1768012720230232	-5.447688281421189	0.01339951530958733	0.1159544111061757	0.1159544111061798	4.820540212005621	2.243002714630807	0.01348312475385141	-0.1831172137583096	-3.075402759083987e-07	3.567816346284449e-07	1.342625883751389e-07	-1.804479397454698e-07	2.630267648877892e-07	2.309681146292042e-06	-4.474337838654567e-07
1.02	-0.2042202025378741	-0.01629580771305892	0.3560815769280164	2.181453203114625	-0.2411748199066299	0.488784061016081	-0.4362743633923476	2.181581318967141	2.181581318967143	0.08767703161476907	-0.1737002712513326	0.4360985240167055	0.4210901945819828	0.005229972096276862	-0.0004030214188388844	4.050944705468795e-05	-0.00599634302118335	0.004807705546004268	-0.02101184389119713	-0.0005755284677971908	0.001984736502353571	0.001984736502353179	0.02269515336192832	0.02068962685589928	0.0008786893509845177	0.009595028955496842	-0.1011852763016499	-0.03320708278949433	-0.009919615043803206	-0.3923911981969262	0.07774124569918262	0.01271452768437951	0.1178386738767531	-6.717510464866648	4.17476186770113	-10.67903470263308	0.6219714409221804	-460.7132174168361	-157.7071175531162	-0.01530959457907477	0.09415977462530997	0.02273070672307778	-0.02459355899530137	0.003447887241047984	-0.07689140005642034	-6.409002378656941	0.1254031443994791	0.1656586293139998	0.1656586293140032	5.767544787236324	2.939841669267921	0.05022648086995114	0.043946621662438	1.19526503870926e-09	-1.15278746371356e-07	4.894279374796088e-08	4.387653399106962e-08	-1.920313608052844e-08	-4.110931669345558e-07	3.535661062172055e-08
1.03	-0.2041664898710952	-0.01629876726997176	0.3560803815905368	2.181402219752248	-0.2411401248066454	0.4882903797885187	-0.4362702292886256	2.181606669842954	2.181606669842957	0.08815179368868151	-0.173387424180735	0.4361054631292563	0.4211670121848595	0.00517165683258104	-0.0001973798813281543	-0.00031555756723341	-0.003293683728785167	0.001145178432067544	-0.07301556927563999	0.001773346981307004	0.002779101276299024	0.002779101276298645	0.06725469835599797	0.03720069091576706	5.260928390072682e-05	0.003539115277401796	-0.1008234207128788	-0.03345524643552155	-0.009684402688638166	-0.3929336197526494	0.07791468028762864	0.01241945633876887	0.1176892756596798	-6.792059391790965	4.398771828663823	-10.8093349304554	1.031171277466229	-461.1624915450773	-157.2339416233879	-0.01532574896377862	-0.1068667195957438	0.01826399119239484	-0.04657461091059432	0.5397589002640693	-0.658874865790776	-3.889674426108008	0.3452794102377101	-0.009735466256557686	-0.009735466256547328	3.04987992644186	0.3048011290333764	-0.2174614246862079	-1.264672514938604	3.22766724544019e-07	-6.021375554162952e-07	-4.046119864818528e-08	2.759743493648714e-07	-3.123396614652287e-07	-3.224318436732645e-06	5.361268534640839e-07
1.04	-0.2041235682654992	-0.01629991378872394	0.3560745333152614	2.1814054797728	-0.2411716432775459	0.4874179379455577	-0.4362314764974041	2.181630752192969	2.181630752192972	0.08892209532672396	-0.1730498539986016	0.4360904542063008	0.4211164082204767	0.003071759859735632	-4.041378670888744e-05	-0.0008900781121135847	0.004852333564609166	-0.008435008631008123	-0.09676396697088481	0.006348209033282385	0.001731031342590393	0.001731031342590012	0.08180306618805112	0.02563424916312143	-0.003510917750729447	-0.0158892844964183	-0.1004615651241039	-0.03370341008154746	-0.009449190333474612	-0.3934760413083725	0.07808811487607317	0.01212438499315914	0.1175398774426095	-6.870845854265385	4.630661597540153	-10.94904288654661	1.476087778176865	-461.6623711146468	-156.6661133431029	-0.01534669204108882	-0.3141565672046412	0.01299561814480096	-0.06828426511375531	1.092119487440415	-1.260423389884199	-0.7579368408173206	0.57060046497358	-0.2028283122167286	-0.202828312216728	-0.2346906451669292	-2.675659493234773	-0.4972629126393261	-2.630550597482554	1.272111996990111e-07	-1.525845632977357e-07	-7.855315306967929e-08	6.555093730114233e-08	-1.07970208535134e-07	-1.013082127487892e-06	1.933900581278613e-07
1.05	-0.2041020951722894	-0.01629952955329269	0.3560632097097517	2.181494485127375	-0.2413083970965167	0.4864623041367935	-0.4361467238520956	2.181639635758661	2.181639635758638	0.08969181518174729	-0.1729247414534895	0.4360362497913577	0.4208487264334794	0.001866309915658509	0.0001309772474617768	-0.001275799895490812	0.01149810901951011	-0.01777039729460446	-0.09010971647456782	0.009879698933408806	0.000240539595210811	0.0002405395952104174	0.06920727808441658	0.0001967997392102676	-0.006723068274424186	-0.03518666575648915	-0.101115469734909	-0.03366275848055669	-0.009225760324476808	-0.3933885140009663	0.07806531835887215	0.01274946713979219	0.1178650697860608	-6.721098459313458	4.265886889019772	-10.81426445347638	0.9867785427006941	-461.749995789686	-157.34842273228	-0.01532102237229387	0.07274171635172687	0.02123429686263511	-0.008865060282250202	0.233179819126016	-0.5982536656178633	2.01504348220612	0.1360300878682869	-0.09289206631164057	-0.09289206631163241	-2.212101527262256	-2.356492889072944	-0.1421568693098849	-1.210309546094065	-8.450454340694132e-08	3.262312976071778e-07	-1.150416063044657e-07	-1.58701263120007e-07	1.119463062172952e-07	1.355168606101921e-06	-1.757063321514373e-07
1.06	-0.2040733803936486	-0.01629702671735778	0.3560509991013419	2.181606422885423	-0.2415041362143276	0.4857008003304624	-0.4360483349407202	2.181639467914818	2.181639467914804	0.09024756142887307	-0.1730297444470376	0.4359681307217642	0.4204618753027163	0.004520096946020792	0.0003833063140244154	-0.001067478692148654	0.009438814258856355	-0.02023206839902107	-0.05793796648425392	0.009075462246979612	-7.925056469036016e-05	-7.925056469076506e-05	0.03900834460876077	-0.02038885856884757	-0.006293848681132063	-0.03972315324954848	-0.1017693743457096	-0.03362210687956452	-0.009002330315481862	-0.3933009866935597	0.0780425218416694	0.01337454928642619	0.1181902621295151	-6.560246146499686	3.884016432830284	-10.65945352036458	0.4634936359741922	-461.809222111834	-158.1095341433745	-0.01529407330215427	0.4576908276832072	0.02918322462321739	0.0505243322300787	-0.6488945556703797	0.1143201219517533	4.345563057982081	-0.2965448523376981	0.03131200527905813	0.03131200527905925	-3.755319719571137	-1.70530127006413	0.2310111107580565	0.3216281559197673	1.66777221650322e-08	1.233182522599046e-07	-6.02241354709007e-08	-5.913741385036407e-08	9.321367460317027e-09	4.200158893848153e-07	-2.757316626244601e-08
1.07	-0.2039950065151406	-0.01629253998611695	0.3560449181997997	2.18165349834012	-0.2416998870025018	0.4853269482770455	-0.4359908339880322	2.181638108171743	2.181638108171732	0.09045995305206171	-0.1733095190266475	0.4359182250444616	0.4200837935061867	0.0122285739955606	0.0004352240136185688	6.226016091564554e-05	-0.001588904513714721	-0.01878806558279241	-0.01897904954814248	0.0005316457315358176	-0.0003734505711479661	-0.0003734505711483824	0.005389700893180945	-0.03404070666994206	-0.003503767089387114	-0.03545698490306761	-0.09938996068398458	-0.03199472062454595	-0.009278920913109553	-0.3970079952407476	0.0809429856321688	0.01311964234010452	0.1156606368566565	-5.809827616663056	4.136728565924455	-11.01202987872453	0.6276489133787679	-462.4148529451725	-158.3974077832231	-0.01527043029384012	1.088545506408481	-0.01861316368004689	0.1758191424340628	-1.564455490393377	0.1789372956875026	3.349078641270928	-1.417262435453381	-0.08693097973959883	-0.08693097973959282	-2.877158392254748	-0.966332754056705	0.3305574509213653	0.5445613506856051	1.345034988368974e-07	-1.158569689518511e-07	-5.499665485929427e-10	5.765069338155718e-08	-1.104600315897168e-07	-6.90849776816722e-07	1.48072210061032e-07
1.08	-0.2038073239935741	-0.01628989591914164	0.3560564587829061	2.181543347616549	-0.2418772983756678	0.4852782899189585	-0.4360755636773604	2.181628377433378	2.181628377433376	0.09039375389915232	-0.1736800533220535	0.4359017303365849	0.4197614634284566	0.02638182555786687	1.4773460922416e-05	0.002456818237592847	-0.02200642138000005	-0.0165641853974003	0.007100772581779819	-0.01937066615613293	-0.001753449622861519	-0.001753449622861988	-0.01670981061053228	-0.03854080172802086	0.0003883452039046191	-0.02857280948965206	-0.09701054702225319	-0.03036733436952581	-0.009555511510741339	-0.4007150037879347	0.08384344942266606	0.01286473539378369	0.113131011583802	-5.051652846683537	4.37797308729921	-11.35123077011843	0.7481676479931119	-462.966945347182	-158.7741594376101	-0.01524084435422247	1.746645730236503	-0.06529042583481413	0.3034881769526208	-2.526854174413142	0.27029559578444	1.769744096744278	-2.568243926782848	-0.1858478037720167	-0.1858478037720239	-1.451493277197772	0.1250493385389813	0.4514172510674584	0.8452295693067353	7.702576603340956e-08	-1.382276304449897e-08	-7.48898244024951e-08	-3.242323299970414e-08	-1.652213442526202e-07	-3.789142131209193e-07	9.947428659000987e-08
